<svg width="22" height="24" viewBox="0 0 22 24" fill="none" xmlns="http://www.w3.org/2000/svg">
<path d="M15.1499 21H12.1499V23H15.1499V21Z" fill="white"/>
<path d="M15.1499 1H12.1499V3H15.1499V1Z" fill="white"/>
<path d="M17.1499 1V3H19.1499V5H21.1499V1H17.1499Z" fill="white"/>
<path d="M21.1499 13.25H19.1499V17H21.1499V13.25Z" fill="white"/>
<path d="M21.1499 7H19.1499V10.75H21.1499V7Z" fill="white"/>
<path d="M19.1499 21H17.1499V23H21.1499V19H19.1499V21Z" fill="white"/>
<path d="M17.11 11.17L11.64 5.1C11.5696 5.02122 11.4833 4.95823 11.3868 4.91515C11.2903 4.87206 11.1857 4.84986 11.08 4.85C10.8785 4.85 10.6852 4.93007 10.5426 5.0726C10.4001 5.21513 10.32 5.40844 10.32 5.61V8.52C9.23252 8.58783 8.1626 8.82746 7.15004 9.23V0H5.15004V10.3C2.00004 12.49 4.38253e-05 16.49 4.38253e-05 21.39C-0.0019147 21.5712 0.0618292 21.7471 0.179485 21.8849C0.297141 22.0228 0.460748 22.1134 0.640044 22.14H0.760044C0.918084 22.1392 1.07183 22.0885 1.19933 21.9951C1.32683 21.9017 1.42158 21.7704 1.47004 21.62C2.06259 19.6312 3.37449 17.9342 5.15004 16.86V24H7.15004V16C8.1828 15.7081 9.24736 15.5436 10.32 15.51V18.38C10.32 18.4915 10.3451 18.6016 10.3936 18.7021C10.4421 18.8025 10.5127 18.8907 10.6 18.96C10.676 19.0232 10.7637 19.0707 10.8581 19.0999C10.9525 19.129 11.0517 19.1393 11.15 19.13C11.25 19.122 11.3471 19.0929 11.435 19.0446C11.5229 18.9964 11.5996 18.93 11.66 18.85L17.13 12.18C17.251 12.0384 17.3158 11.8574 17.3121 11.6712C17.3085 11.485 17.2365 11.3067 17.11 11.17V11.17ZM11.84 16.24V14.71C11.8374 14.5102 11.7562 14.3194 11.6139 14.1791C11.4717 14.0387 11.2799 13.96 11.08 13.96C7.00004 14 4.00004 15.17 2.00004 17.56C3.21004 12.88 6.64004 10 11.08 10C11.2816 10 11.4749 9.91993 11.6174 9.7774C11.76 9.63487 11.84 9.44156 11.84 9.24V7.58L15.55 11.7L11.84 16.24Z" fill="white"/>
</svg>
