<svg width="25" height="24" viewBox="0 0 25 24" fill="none" xmlns="http://www.w3.org/2000/svg">
<path d="M12.5 0C5.59375 0 0 5.45209 0 12.1763C0 17.5572 3.58125 22.1202 8.54687 23.729C9.17187 23.8436 9.40104 23.4667 9.40104 23.1435C9.40104 22.8544 9.39062 22.0882 9.38542 21.0732C5.90833 21.8073 5.175 19.4396 5.175 19.4396C4.60625 18.0342 3.78437 17.6584 3.78437 17.6584C2.65208 16.9036 3.87187 16.919 3.87187 16.919C5.12708 17.0037 5.78646 18.1736 5.78646 18.1736C6.90104 20.0354 8.7125 19.4974 9.42708 19.1866C9.53958 18.3987 9.86146 17.8628 10.2188 17.5582C7.44271 17.2536 4.525 16.2066 4.525 11.5413C4.525 10.2123 5.00937 9.12606 5.81146 8.27417C5.67083 7.96646 5.24896 6.72838 5.92083 5.05145C5.92083 5.05145 6.96771 4.72515 9.35833 6.29985C10.3583 6.02931 11.4208 5.89507 12.4833 5.88888C13.5458 5.89507 14.6083 6.02931 15.6083 6.29985C17.9833 4.72515 19.0302 5.05145 19.0302 5.05145C19.7021 6.72838 19.2802 7.96646 19.1552 8.27417C19.9521 9.12606 20.4365 10.2123 20.4365 11.5413C20.4365 16.2189 17.5146 17.2484 14.7333 17.5479C15.1708 17.9134 15.5771 18.66 15.5771 19.801C15.5771 21.4304 15.5615 22.7398 15.5615 23.1353C15.5615 23.4543 15.7802 23.8354 16.4208 23.7135C21.4219 22.115 25 17.5489 25 12.1763C25 5.45209 19.4031 0 12.5 0V0Z" fill="white"/>
</svg>
